<svg width="52" height="42" viewBox="0 0 52 42" fill="none" xmlns="http://www.w3.org/2000/svg">
<rect x="11.1428" y="11.8125" width="34.6667" height="19.6875" fill="#FBCB66" fill-opacity="0.15"/>
<rect x="30.9524" y="2.625" width="18.5714" height="9.1875" rx="4" fill="#FBCB66" fill-opacity="0.15"/>
<path d="M36.075 1.70625C33.5156 2.05078 31.1594 3.675 30.3062 5.67656C29.9406 6.49688 29.8187 7.41563 29.9406 8.18672C30.0016 8.54766 30.0828 8.89219 30.1234 8.97422C30.1844 9.10547 29.6156 9.12188 18.7078 9.12188C10.0141 9.12188 7.12969 9.13828 6.825 9.22031C6.29687 9.35156 5.40312 10.0734 5.24062 10.5C5.15937 10.7297 5.11875 11.8781 5.11875 14.6672V18.5063H4.34687H3.575V21.6891V24.8883L3.33125 25.0031C2.925 25.1672 2.275 25.807 2.15313 26.1516C1.99063 26.5781 1.99063 32.9438 2.15313 33.3703C2.275 33.7148 2.925 34.3547 3.33125 34.5188L3.575 34.6336V37.5211V40.3594H7.43437H11.2937V37.4883V34.6008L11.5375 34.4859C11.9437 34.3219 12.5937 33.682 12.7156 33.3375C12.7766 33.1734 12.8375 32.7141 12.8375 32.3203V31.6148H13.9953H15.1531V35.1422C15.1531 37.6688 15.1734 38.7516 15.275 38.9977C15.4375 39.4242 16.3313 40.1461 16.8594 40.2773C17.4484 40.4086 44.5859 40.4086 45.175 40.2773C45.7437 40.1461 46.5969 39.4242 46.7797 38.9648C46.8609 38.7023 46.9016 38.0789 46.8609 36.7008C46.8406 34.7977 46.8406 34.7977 46.5562 34.3875C46.1703 33.7969 45.8047 33.4852 45.1141 33.1898C44.6266 32.9766 44.3625 32.9273 43.7531 32.8945L43.0016 32.8617V35.3883V37.9148L43.7531 37.8656C44.2609 37.8492 44.6469 37.7672 44.9109 37.6688L45.3172 37.5047V38.1609C45.3172 39.1781 45.4188 39.1453 42.7172 39.1453H40.5031L40.6047 38.9156C40.6656 38.768 40.6859 37.9313 40.6656 36.75L40.6453 34.8141L40.3813 34.4039C39.9953 33.8133 39.6094 33.5016 38.9391 33.2063C38.4516 32.993 38.1875 32.9438 37.5781 32.9109L36.8266 32.8781V35.4047V37.9313L37.5781 37.882C38.0859 37.8656 38.4719 37.7836 38.7359 37.6852L39.1422 37.5211V38.1773C39.1422 39.2766 40.5437 39.1617 27.9297 39.1617C17.225 39.1617 17.1031 39.1617 16.9 38.9977C16.7172 38.85 16.6969 38.7352 16.6969 35.257V31.6641H30.7328C41.4375 31.6641 44.85 31.6477 45.175 31.5656C45.7031 31.4344 46.5969 30.7125 46.7594 30.2859C46.8406 30.0398 46.8813 27.8414 46.8813 21.1969V12.4031L47.6938 11.7469C48.1609 11.3859 48.6688 10.8773 48.9125 10.5492C50.6594 8.18672 50.1922 5.38125 47.775 3.4125C46.6172 2.49375 45.2359 1.90313 43.7125 1.70625C42.9609 1.60781 36.8266 1.60781 36.075 1.70625ZM44.1187 3.01875C45.2359 3.24844 45.9875 3.59297 46.7594 4.23281C47.5516 4.87266 47.9781 5.4961 48.2625 6.34922C48.6281 7.49766 48.4453 8.79375 47.7547 9.84375C47.3484 10.4672 46.2516 11.3531 45.4797 11.6813C44.3016 12.1734 43.7328 12.2391 40.5844 12.2391H37.7609L36.5219 12.8953L35.3031 13.5516V12.7969V12.0094L34.5109 11.6813C33.5562 11.2711 32.5812 10.5328 32.1344 9.84375C31.2203 8.46563 31.2203 6.72656 32.1344 5.28281C32.5406 4.62656 33.6172 3.75703 34.4297 3.42891C35.6687 2.92031 36.0344 2.8875 39.9141 2.8875C43.0422 2.8711 43.4484 2.8875 44.1187 3.01875ZM9.77031 14.4375V18.4898H8.22656H6.68281V14.5852C6.68281 10.7789 6.68281 10.6805 6.88594 10.5164C7.06875 10.3688 7.21094 10.3523 8.42969 10.3523H9.79063V14.4375H9.77031ZM31.1594 10.8281C31.5859 11.3531 32.8453 12.3703 33.3734 12.6L33.7391 12.7641V14.3063C33.7391 15.1594 33.7594 15.8484 33.7797 15.8484C33.8 15.8484 34.8156 15.3234 36.0344 14.6836C38.0859 13.5844 38.2688 13.5188 38.6953 13.5188H39.1625V21.9516V30.3844H26.0203H12.8578V28.432C12.8578 27.1359 12.8172 26.3648 12.7359 26.1516C12.6141 25.807 11.9641 25.1672 11.5578 25.0031L11.3141 24.8883V17.6367V10.3688H21.0641H30.7938L31.1594 10.8281ZM45.3375 16.5539C45.3375 19.2445 45.2969 20.032 45.2156 19.8188C45.0531 19.425 44.1391 18.7031 43.6313 18.5883C42.7781 18.3914 42.1891 18.5391 41.4578 19.1133C41.1531 19.343 40.8687 19.6711 40.8078 19.8188C40.7266 20.032 40.7063 19.3102 40.6859 16.7836V13.4859H41.8844C43.1844 13.4859 44.0375 13.4039 44.7891 13.1742C45.0734 13.0922 45.2969 13.0266 45.3172 13.0102C45.3375 13.043 45.3578 14.618 45.3375 16.5539ZM9.77031 22.2469V24.7406H7.45469H5.13906V22.2469V19.7531H7.45469H9.77031V22.2469ZM43.6109 19.9008C43.7328 19.9992 43.8141 20.1633 43.8141 20.3766C43.8141 20.5898 43.7531 20.7375 43.6109 20.8523C43.4891 20.9508 43.2859 21.0164 43.0219 21.0164C42.7578 21.0164 42.575 20.9672 42.4328 20.8523C42.3109 20.7539 42.2297 20.5898 42.2297 20.3766C42.2297 20.1633 42.2906 20.0156 42.4328 19.9008C42.5547 19.8023 42.7578 19.7367 43.0219 19.7367C43.2859 19.7367 43.4891 19.8023 43.6109 19.9008ZM41.4781 21.6234C42.0062 22.05 42.4938 22.2469 43.0219 22.2469C43.1438 22.2469 43.4281 22.2141 43.6313 22.1484C44.1188 22.0336 45.0531 21.3117 45.2156 20.918C45.2969 20.7211 45.3172 21.8039 45.3375 25.3477C45.3375 29.9578 45.3375 30.0563 45.1547 30.2203C44.9719 30.368 44.8297 30.3844 42.8391 30.3844H40.7062V25.5117C40.7062 21.8695 40.7469 20.7211 40.8281 20.9344C40.8891 21.0656 41.1937 21.3773 41.4781 21.6234ZM11.1312 26.1516C11.3141 26.2992 11.3344 26.4141 11.3141 27.8414C11.3141 28.957 11.2734 29.3016 11.2125 29.0883C10.9484 28.2023 10.0344 27.3328 8.91719 26.9063C8.34844 26.693 8.16563 26.6602 7.45469 26.6602C6.72344 26.6602 6.56094 26.693 5.99219 26.9063C4.875 27.3328 3.96094 28.2023 3.69688 29.0883C3.63594 29.3016 3.61563 28.957 3.59531 27.8414C3.59531 26.3977 3.59531 26.2992 3.77813 26.1516C3.96094 26.0039 4.10313 25.9875 7.45469 25.9875C10.8063 25.9875 10.9484 26.0039 11.1312 26.1516ZM8.32812 27.9891C9.48594 28.3172 10.0547 29.4328 9.62813 30.4664C9.12031 31.6641 6.96719 32.025 5.78906 31.1063C4.91562 30.4172 4.91562 29.0883 5.78906 28.3992C6.41875 27.8906 7.43437 27.7266 8.32812 27.9891ZM4.08281 31.1555C4.48906 31.7461 5.15938 32.2711 5.99219 32.5828C6.56094 32.7961 6.74375 32.8289 7.45469 32.8289C8.18594 32.8289 8.34844 32.7961 8.91719 32.5828C10.0344 32.1563 10.9484 31.2867 11.2125 30.4008C11.2734 30.1875 11.2938 30.532 11.3141 31.6313C11.3141 33.075 11.3141 33.1898 11.1312 33.3375C10.9484 33.4852 10.8063 33.5016 7.45469 33.5016C4.10313 33.5016 3.96094 33.5016 3.77813 33.3375C3.59531 33.1898 3.575 33.075 3.59531 31.6313C3.59531 30.5156 3.63594 30.1711 3.69688 30.4008C3.7375 30.5648 3.92031 30.9094 4.08281 31.1555ZM38.7563 34.4367C39.0203 34.6664 39.1625 34.9945 39.1625 35.3555C39.1625 35.5195 39.1219 35.7492 39.0609 35.8805C38.9594 36.1102 38.6141 36.4547 38.4719 36.4547C38.4312 36.4547 38.3906 35.9625 38.3906 35.3555C38.3906 34.7484 38.4312 34.2563 38.4719 34.2563C38.5125 34.2727 38.6344 34.3383 38.7563 34.4367ZM44.9516 34.4367C45.2156 34.6664 45.3578 34.9945 45.3578 35.3555C45.3578 35.5195 45.3172 35.7492 45.2563 35.8805C45.1547 36.1102 44.8094 36.4547 44.6672 36.4547C44.6266 36.4547 44.5859 35.9625 44.5859 35.3555C44.5859 34.7484 44.6266 34.2563 44.6672 34.2563C44.7078 34.2727 44.8297 34.3383 44.9516 34.4367ZM9.77031 36.9305V39.1125H7.45469H5.13906V36.9305V34.7484H7.45469H9.77031V36.9305Z" fill="url(#paint0_linear_41_100)"/>
<path d="M34.5312 6.00469V6.62813H39.9547H45.3781V6.00469V5.38125H39.9547H34.5312V6.00469Z" fill="url(#paint1_linear_41_100)"/>
<path d="M34.5312 9.12188V9.74532H39.9547H45.3781V9.12188V8.49844H39.9547H34.5312V9.12188Z" fill="url(#paint2_linear_41_100)"/>
<path d="M24.0297 11.7141C19.9875 12.3211 17.0828 15.3891 17.5906 18.5391C18.0375 21.443 20.8 23.6742 24.375 24.068C27.1781 24.3633 30.2047 23.1656 31.7687 21.1313C33.5765 18.8016 33.3125 16.0125 31.0781 13.8633C29.3719 12.2227 26.5078 11.3367 24.0297 11.7141ZM26.65 12.9938C30.55 13.65 32.5812 17.2102 30.7734 20.1797C30.4281 20.7375 29.4125 21.7875 29.2297 21.7875C29.189 21.7875 29.1281 21.4594 29.1078 21.0492C29.0672 20.4422 29.0062 20.2289 28.7625 19.8023C28.4172 19.2117 27.8281 18.6539 27.2187 18.3586L26.8125 18.1617L27.2797 17.8008C27.9906 17.243 28.2953 16.718 28.2953 15.9961C28.2953 15.5039 28.2547 15.3398 28.0312 15.0117C27.6453 14.4211 27.2797 14.1094 26.589 13.8141C26.0406 13.5844 25.8984 13.5516 25.2484 13.5516C24.375 13.5516 23.7656 13.7648 23.1156 14.2898C22.4656 14.8148 22.2015 15.2906 22.2015 16.0125C22.2015 16.5047 22.2422 16.6688 22.4656 17.0297C22.6078 17.2594 22.9531 17.6203 23.2172 17.8336L23.6844 18.1945L23.2781 18.3914C22.6687 18.6703 22.0797 19.2281 21.7344 19.8352C21.4906 20.2617 21.4297 20.475 21.389 21.082C21.3687 21.4922 21.3078 21.8203 21.2672 21.8203C21.2265 21.8203 20.9422 21.607 20.6578 21.3281C18.464 19.3758 18.5453 16.2094 20.8609 14.3555C22.3031 13.125 24.4969 12.6164 26.65 12.9938ZM26.1828 14.9461C26.6094 15.2086 26.7922 15.5859 26.7515 16.0945C26.6906 16.882 26.1219 17.2758 25.1062 17.2266C24.1312 17.1773 23.6437 16.718 23.7047 15.8977C23.7453 15.3891 23.9484 15.0938 24.4562 14.8805C24.9234 14.6836 25.8172 14.7328 26.1828 14.9461ZM26.0609 19.2117C26.589 19.3266 27.239 19.8352 27.4219 20.2781C27.5234 20.5406 27.5844 20.9344 27.5844 21.607V22.5586L27.0359 22.7063C26.6297 22.8047 26.1422 22.8539 25.2687 22.8539C24.3953 22.8539 23.9078 22.8211 23.5015 22.7063L22.9328 22.5586V21.607C22.9328 21.082 22.9734 20.5078 23.0344 20.3438C23.1765 19.95 23.8469 19.3758 24.3344 19.2445C24.7812 19.0969 25.5328 19.0805 26.0609 19.2117Z" fill="url(#paint3_linear_41_100)"/>
<path d="M18.8703 26.0695C18.4032 26.1844 17.7328 26.7586 17.5906 27.1523C17.3875 27.8086 17.7531 28.4812 18.525 28.875C18.8703 29.0555 18.9922 29.0555 20.7188 29.0883C22.8922 29.1211 23.2578 29.0719 23.8266 28.5961C24.7407 27.8414 24.5578 26.775 23.4203 26.2008C23.075 26.0203 22.9735 26.0203 21.125 26.0039C20.0688 26.0039 19.0532 26.0367 18.8703 26.0695ZM22.8719 27.5461V27.825H20.9828H19.0938L19.0735 27.6445C18.9922 27.2344 19.0125 27.2344 21.0032 27.2508L22.8719 27.2672V27.5461Z" fill="url(#paint4_linear_41_100)"/>
<path d="M27.3812 26.0695C26.914 26.1844 26.2437 26.7586 26.1015 27.1523C25.8984 27.8086 26.264 28.4812 27.0359 28.875C27.3812 29.0555 27.5031 29.0555 29.2296 29.0883C31.4031 29.1211 31.7687 29.0719 32.3375 28.5961C33.2515 27.8414 33.0687 26.775 31.9312 26.2008C31.5859 26.0203 31.4843 26.0203 29.6359 26.0039C28.5796 26.0039 27.564 26.0367 27.3812 26.0695ZM31.3828 27.5461V27.825H29.4937H27.6046L27.5843 27.6445C27.5031 27.2344 27.5234 27.2344 29.514 27.2508L31.3828 27.2672V27.5461Z" fill="url(#paint5_linear_41_100)"/>
<rect x="3.71423" y="19.6875" width="7.42857" height="19.6875" fill="#FBCB66" fill-opacity="0.15"/>
<rect x="6.19043" y="9.1875" width="3.71429" height="10.5" rx="1" fill="#FBCB66" fill-opacity="0.15"/>
<rect x="9.90479" y="9.1875" width="22.2857" height="2.625" rx="0.5" fill="#FBCB66" fill-opacity="0.15"/>
<defs>
<linearGradient id="paint0_linear_41_100" x1="4.74738" y1="1.63242" x2="36.7884" y2="45.4046" gradientUnits="userSpaceOnUse">
<stop offset="0.259336" stop-color="#FFDB6E"/>
<stop offset="1" stop-color="#FFBC5E"/>
</linearGradient>
<linearGradient id="paint1_linear_41_100" x1="35.1459" y1="5.38125" x2="35.3687" y2="7.52159" gradientUnits="userSpaceOnUse">
<stop offset="0.259336" stop-color="#FFDB6E"/>
<stop offset="1" stop-color="#FFBC5E"/>
</linearGradient>
<linearGradient id="paint2_linear_41_100" x1="35.1459" y1="8.49844" x2="35.3687" y2="10.6388" gradientUnits="userSpaceOnUse">
<stop offset="0.259336" stop-color="#FFDB6E"/>
<stop offset="1" stop-color="#FFBC5E"/>
</linearGradient>
<linearGradient id="paint3_linear_41_100" x1="18.4072" y1="11.6278" x2="28.7358" y2="25.7214" gradientUnits="userSpaceOnUse">
<stop offset="0.259336" stop-color="#FFDB6E"/>
<stop offset="1" stop-color="#FFBC5E"/>
</linearGradient>
<linearGradient id="paint4_linear_41_100" x1="17.9248" y1="26.0039" x2="19.7998" y2="30.6058" gradientUnits="userSpaceOnUse">
<stop offset="0.259336" stop-color="#FFDB6E"/>
<stop offset="1" stop-color="#FFBC5E"/>
</linearGradient>
<linearGradient id="paint5_linear_41_100" x1="26.4356" y1="26.0039" x2="28.3107" y2="30.6058" gradientUnits="userSpaceOnUse">
<stop offset="0.259336" stop-color="#FFDB6E"/>
<stop offset="1" stop-color="#FFBC5E"/>
</linearGradient>
</defs>
</svg>
