<svg width="42" height="32" viewBox="0 0 42 32" fill="none" xmlns="http://www.w3.org/2000/svg">
<rect width="42" height="27" rx="3" fill="#FBCB66" fill-opacity="0.15"/>
<path d="M38.6489 0H3.35106C1.50324 0 0 1.20974 0 2.69663V24.2697C0 25.7565 1.50324 26.9663 3.35106 26.9663H16.3085V30.9213H11.617C11.2469 30.9213 10.9468 31.1628 10.9468 31.4607C10.9468 31.7585 11.2469 32 11.617 32H30.383C30.7531 32 31.0532 31.7585 31.0532 31.4607C31.0532 31.1628 30.7531 30.9213 30.383 30.9213H25.6915V26.9663H38.6489C40.4968 26.9663 42 25.7565 42 24.2697V2.69663C42 1.20974 40.4968 0 38.6489 0ZM24.3511 30.9213H17.6489V26.9663H24.3511V30.9213ZM40.6596 24.2697C40.6596 25.1618 39.7576 25.8876 38.6489 25.8876H3.35106C2.24235 25.8876 1.34043 25.1618 1.34043 24.2697V22.6517H40.6596V24.2697ZM40.6596 21.573H1.34043V2.69663C1.34043 1.80451 2.24235 1.07865 3.35106 1.07865H38.6489C39.7576 1.07865 40.6596 1.80451 40.6596 2.69663V21.573Z" fill="black"/>
<path d="M38.6489 0H3.35106C1.50324 0 0 1.20974 0 2.69663V24.2697C0 25.7565 1.50324 26.9663 3.35106 26.9663H16.3085V30.9213H11.617C11.2469 30.9213 10.9468 31.1628 10.9468 31.4607C10.9468 31.7585 11.2469 32 11.617 32H30.383C30.7531 32 31.0532 31.7585 31.0532 31.4607C31.0532 31.1628 30.7531 30.9213 30.383 30.9213H25.6915V26.9663H38.6489C40.4968 26.9663 42 25.7565 42 24.2697V2.69663C42 1.20974 40.4968 0 38.6489 0ZM24.3511 30.9213H17.6489V26.9663H24.3511V30.9213ZM40.6596 24.2697C40.6596 25.1618 39.7576 25.8876 38.6489 25.8876H3.35106C2.24235 25.8876 1.34043 25.1618 1.34043 24.2697V22.6517H40.6596V24.2697ZM40.6596 21.573H1.34043V2.69663C1.34043 1.80451 2.24235 1.07865 3.35106 1.07865H38.6489C39.7576 1.07865 40.6596 1.80451 40.6596 2.69663V21.573Z" fill="url(#paint0_linear_33_66)"/>
<path d="M38.649 2.1573H3.35112C2.98098 2.1573 2.68091 2.39878 2.68091 2.69663V19.9551C2.68091 20.2529 2.98098 20.4944 3.35112 20.4944H32.3937C32.7638 20.4944 33.0639 20.2529 33.0639 19.9551C33.0639 19.6572 32.7638 19.4157 32.3937 19.4157H4.02133V3.23595H37.9788V19.4157H35.0745C34.7044 19.4157 34.4043 19.6572 34.4043 19.9551C34.4043 20.2529 34.7044 20.4944 35.0745 20.4944H38.649C39.0191 20.4944 39.3192 20.2529 39.3192 19.9551V2.69663C39.3192 2.39878 39.0191 2.1573 38.649 2.1573Z" fill="black"/>
<path d="M38.649 2.1573H3.35112C2.98098 2.1573 2.68091 2.39878 2.68091 2.69663V19.9551C2.68091 20.2529 2.98098 20.4944 3.35112 20.4944H32.3937C32.7638 20.4944 33.0639 20.2529 33.0639 19.9551C33.0639 19.6572 32.7638 19.4157 32.3937 19.4157H4.02133V3.23595H37.9788V19.4157H35.0745C34.7044 19.4157 34.4043 19.6572 34.4043 19.9551C34.4043 20.2529 34.7044 20.4944 35.0745 20.4944H38.649C39.0191 20.4944 39.3192 20.2529 39.3192 19.9551V2.69663C39.3192 2.39878 39.0191 2.1573 38.649 2.1573Z" fill="url(#paint1_linear_33_66)"/>
<defs>
<linearGradient id="paint0_linear_33_66" x1="2.38" y1="5.20506e-07" x2="28.3348" y2="37.617" gradientUnits="userSpaceOnUse">
<stop offset="0.259336" stop-color="#FFDB6E"/>
<stop offset="1" stop-color="#FFBC5E"/>
</linearGradient>
<linearGradient id="paint1_linear_33_66" x1="4.75708" y1="2.1573" x2="16.7206" y2="28.5528" gradientUnits="userSpaceOnUse">
<stop offset="0.259336" stop-color="#FFDB6E"/>
<stop offset="1" stop-color="#FFBC5E"/>
</linearGradient>
</defs>
</svg>
